<svg width="169" height="59" viewBox="0 0 169 59" fill="none" xmlns="http://www.w3.org/2000/svg">
<rect width="87.0178" height="59" fill="#2F2F2F"/>
<rect x="81.9586" width="87.0178" height="59" fill="#E3E0DD"/>
<path d="M15.642 47V12.0909H24.0795V26.1023H37.8352V12.0909H46.2557V47H37.8352V32.9716H24.0795V47H15.642ZM51.5483 47V12.0909H65.9688C68.5824 12.0909 70.8381 12.5625 72.7358 13.5057C74.6449 14.4375 76.1165 15.7784 77.1506 17.5284C78.1847 19.267 78.7017 21.3295 78.7017 23.7159C78.7017 26.1364 78.1733 28.1932 77.1165 29.8864C76.0597 31.5682 74.5597 32.8523 72.6165 33.7386C70.6733 34.6136 68.3722 35.0511 65.7131 35.0511H56.5938V28.4034H64.1449C65.4176 28.4034 66.4801 28.2386 67.3324 27.9091C68.196 27.5682 68.8494 27.0568 69.2926 26.375C69.7358 25.6818 69.9574 24.7955 69.9574 23.7159C69.9574 22.6364 69.7358 21.7443 69.2926 21.0398C68.8494 20.3239 68.196 19.7898 67.3324 19.4375C66.4688 19.0739 65.4063 18.892 64.1449 18.892H59.9858V47H51.5483ZM71.2017 31.0455L79.8949 47H70.6903L62.1676 31.0455H71.2017Z" fill="#E3E0DD"/>
<path d="M91.6648 32.0682V47H83.3295V20.8182H91.2557V25.625H91.5455C92.125 24.0227 93.1136 22.767 94.5114 21.858C95.9091 20.9375 97.5739 20.4773 99.5057 20.4773C101.347 20.4773 102.943 20.892 104.295 21.7216C105.659 22.5398 106.716 23.6875 107.466 25.1648C108.227 26.6307 108.602 28.3466 108.591 30.3125V47H100.256V31.9489C100.267 30.4943 99.8977 29.358 99.1477 28.5398C98.4091 27.7216 97.3807 27.3125 96.0625 27.3125C95.1875 27.3125 94.4148 27.5057 93.7443 27.892C93.0852 28.267 92.5739 28.8068 92.2102 29.5114C91.858 30.2159 91.6761 31.0682 91.6648 32.0682ZM125.99 47.4943C123.251 47.4943 120.888 46.9545 118.899 45.875C116.922 44.7841 115.399 43.233 114.331 41.2216C113.274 39.1989 112.746 36.7955 112.746 34.0114C112.746 31.3068 113.28 28.9432 114.348 26.9205C115.416 24.8864 116.922 23.3068 118.865 22.1818C120.808 21.0455 123.098 20.4773 125.734 20.4773C127.598 20.4773 129.303 20.767 130.848 21.3466C132.393 21.9261 133.729 22.7841 134.854 23.9205C135.979 25.0568 136.854 26.4602 137.479 28.1307C138.104 29.7898 138.416 31.6932 138.416 33.8409V35.9205H115.661V31.0795H130.661C130.649 30.1932 130.439 29.4034 130.03 28.7102C129.621 28.017 129.058 27.4773 128.342 27.0909C127.638 26.6932 126.825 26.4943 125.905 26.4943C124.973 26.4943 124.138 26.7045 123.399 27.125C122.661 27.5341 122.075 28.0966 121.643 28.8125C121.212 29.517 120.984 30.3182 120.962 31.2159V36.142C120.962 37.2102 121.172 38.1477 121.592 38.9545C122.013 39.75 122.609 40.3693 123.382 40.8125C124.155 41.2557 125.075 41.4773 126.143 41.4773C126.882 41.4773 127.553 41.375 128.155 41.1705C128.757 40.9659 129.274 40.6648 129.706 40.267C130.138 39.8693 130.462 39.3807 130.678 38.8011L138.331 39.0227C138.013 40.7386 137.314 42.233 136.234 43.5057C135.166 44.767 133.763 45.75 132.024 46.4545C130.286 47.1477 128.274 47.4943 125.99 47.4943ZM157.452 20.8182V26.9545H140.935V20.8182H157.452ZM144.395 14.5455H152.73V38.767C152.73 39.2784 152.81 39.6932 152.969 40.0114C153.139 40.3182 153.384 40.5398 153.702 40.6761C154.02 40.8011 154.401 40.8636 154.844 40.8636C155.162 40.8636 155.497 40.8352 155.849 40.7784C156.213 40.7102 156.486 40.6534 156.668 40.608L157.929 46.625C157.531 46.7386 156.969 46.8807 156.241 47.0511C155.526 47.2216 154.668 47.3295 153.668 47.375C151.713 47.4659 150.037 47.2386 148.639 46.6932C147.253 46.1364 146.19 45.2727 145.452 44.1023C144.724 42.9318 144.372 41.4602 144.395 39.6875V14.5455Z" fill="#2F2F2F"/>
</svg>
